<mxfile host="b978bb00-94d3-445b-89fa-9653513db34e" modified="2020-07-27T05:06:03.684Z" agent="5.0 (X11; Linux x86_64) AppleWebKit/537.36 (KHTML, like Gecko) Code/1.47.2 Chrome/78.0.3904.130 Electron/7.3.2 Safari/537.36" etag="bhsQJEKMq45QdMdsl9Bs" version="13.1.3">
    <diagram id="KAqjz7zcjYPBLz1x9ajG" name="Page-1">
        <mxGraphModel dx="841" dy="639" grid="1" gridSize="4" guides="1" tooltips="1" connect="1" arrows="1" fold="1" page="1" pageScale="1" pageWidth="850" pageHeight="1100" math="0" shadow="0">
            <root>
                <mxCell id="0"/>
                <mxCell id="1" parent="0"/>
                <mxCell id="pgW4turYCSJJqPB_iv1n-37" value="" style="endArrow=none;html=1;strokeWidth=1;fontFamily=Lato;fontSize=12;fontColor=#CC0000;dashed=1;dashPattern=1 1;" parent="1" edge="1">
                    <mxGeometry width="50" height="50" relative="1" as="geometry">
                        <mxPoint x="440" y="612" as="sourcePoint"/>
                        <mxPoint x="440" y="296" as="targetPoint"/>
                    </mxGeometry>
                </mxCell>
                <mxCell id="pgW4turYCSJJqPB_iv1n-16" style="edgeStyle=orthogonalEdgeStyle;rounded=0;orthogonalLoop=1;jettySize=auto;html=1;exitX=1;exitY=0.25;exitDx=0;exitDy=0;entryX=0;entryY=0.25;entryDx=0;entryDy=0;startArrow=classicThin;startFill=1;endArrow=classicThin;endFill=1;fontFamily=Lato;fontSize=12;fontColor=#000000;dashed=1;strokeColor=#000000;" parent="1" source="pgW4turYCSJJqPB_iv1n-1" target="pgW4turYCSJJqPB_iv1n-10" edge="1">
                    <mxGeometry relative="1" as="geometry">
                        <Array as="points">
                            <mxPoint x="320" y="384"/>
                            <mxPoint x="320" y="320"/>
                            <mxPoint x="592" y="320"/>
                            <mxPoint x="592" y="376"/>
                        </Array>
                    </mxGeometry>
                </mxCell>
                <mxCell id="pgW4turYCSJJqPB_iv1n-17" value="VIPT" style="edgeLabel;html=1;align=center;verticalAlign=middle;resizable=0;points=[];fontSize=12;fontFamily=Lato;labelBackgroundColor=none;fontColor=#000000;" parent="pgW4turYCSJJqPB_iv1n-16" vertex="1" connectable="0">
                    <mxGeometry x="-0.0788" y="2" relative="1" as="geometry">
                        <mxPoint x="-102.00000000000001" y="-6" as="offset"/>
                    </mxGeometry>
                </mxCell>
                <mxCell id="pgW4turYCSJJqPB_iv1n-18" style="edgeStyle=orthogonalEdgeStyle;rounded=0;orthogonalLoop=1;jettySize=auto;html=1;exitX=1;exitY=0.5;exitDx=0;exitDy=0;entryX=0;entryY=0.75;entryDx=0;entryDy=0;dashed=1;startArrow=classicThin;startFill=1;endArrow=classicThin;endFill=1;fontFamily=Lato;fontSize=12;fontColor=#000000;strokeColor=#000000;" parent="1" source="pgW4turYCSJJqPB_iv1n-1" target="pgW4turYCSJJqPB_iv1n-11" edge="1">
                    <mxGeometry relative="1" as="geometry">
                        <Array as="points">
                            <mxPoint x="320" y="416"/>
                            <mxPoint x="320" y="488"/>
                        </Array>
                    </mxGeometry>
                </mxCell>
                <mxCell id="pgW4turYCSJJqPB_iv1n-20" value="VIPT" style="edgeLabel;html=1;align=center;verticalAlign=middle;resizable=0;points=[];fontSize=12;fontFamily=Lato;labelBackgroundColor=none;fontColor=#000000;" parent="pgW4turYCSJJqPB_iv1n-18" vertex="1" connectable="0">
                    <mxGeometry x="-0.5711" relative="1" as="geometry">
                        <mxPoint x="3.9999999999999982" y="5.000000000000002" as="offset"/>
                    </mxGeometry>
                </mxCell>
                <mxCell id="pgW4turYCSJJqPB_iv1n-42" style="edgeStyle=orthogonalEdgeStyle;rounded=0;orthogonalLoop=1;jettySize=auto;html=1;exitX=0.75;exitY=1;exitDx=0;exitDy=0;entryX=0.25;entryY=1;entryDx=0;entryDy=0;startArrow=classicThin;startFill=1;endArrow=classicThin;endFill=1;strokeWidth=2;fontFamily=Lato;fontSize=12;fontColor=#009900;strokeColor=#808080;" parent="1" source="pgW4turYCSJJqPB_iv1n-1" target="pgW4turYCSJJqPB_iv1n-2" edge="1">
                    <mxGeometry relative="1" as="geometry">
                        <Array as="points">
                            <mxPoint x="256" y="512"/>
                            <mxPoint x="420" y="512"/>
                        </Array>
                    </mxGeometry>
                </mxCell>
                <mxCell id="pgW4turYCSJJqPB_iv1n-43" value="TLB*/CACHE 指令" style="edgeLabel;html=1;align=center;verticalAlign=middle;resizable=0;points=[];fontSize=12;fontFamily=Lato;labelBackgroundColor=none;fontColor=#808080;" parent="pgW4turYCSJJqPB_iv1n-42" vertex="1" connectable="0">
                    <mxGeometry x="0.1841" y="-2" relative="1" as="geometry">
                        <mxPoint x="-83.6" y="6" as="offset"/>
                    </mxGeometry>
                </mxCell>
                <mxCell id="pgW4turYCSJJqPB_iv1n-1" value="非常大的 CPU" style="rounded=0;whiteSpace=wrap;html=1;fontSize=16;fontFamily=Lato;shadow=1;fillColor=#e51400;strokeColor=#B20000;fontColor=#ffffff;" parent="1" vertex="1">
                    <mxGeometry x="160" y="352" width="128" height="128" as="geometry"/>
                </mxCell>
                <mxCell id="pgW4turYCSJJqPB_iv1n-2" value="" style="whiteSpace=wrap;html=1;aspect=fixed;fontFamily=Lato;fontSize=16;shadow=1;" parent="1" vertex="1">
                    <mxGeometry x="400" y="352" width="80" height="80" as="geometry"/>
                </mxCell>
                <mxCell id="pgW4turYCSJJqPB_iv1n-7" value="类 SRAM 总线" style="text;html=1;align=center;verticalAlign=middle;resizable=0;points=[];autosize=1;fontSize=14;fontFamily=Lato;labelBackgroundColor=none;fontColor=#009900;" parent="1" vertex="1">
                    <mxGeometry x="528" y="544" width="104" height="24" as="geometry"/>
                </mxCell>
                <mxCell id="pgW4turYCSJJqPB_iv1n-25" style="edgeStyle=orthogonalEdgeStyle;rounded=0;orthogonalLoop=1;jettySize=auto;html=1;exitX=1;exitY=0.5;exitDx=0;exitDy=0;entryX=0;entryY=0.5;entryDx=0;entryDy=0;startArrow=classicThin;startFill=1;endArrow=classicThin;endFill=1;strokeWidth=2;fontFamily=Lato;fontSize=12;fontColor=none;strokeColor=#808080;" parent="1" source="pgW4turYCSJJqPB_iv1n-10" target="10" edge="1">
                    <mxGeometry relative="1" as="geometry"/>
                </mxCell>
                <mxCell id="pgW4turYCSJJqPB_iv1n-10" value="L1i" style="rounded=0;whiteSpace=wrap;html=1;labelBackgroundColor=none;fontFamily=Lato;fontSize=16;fontColor=#000000;shadow=1;" parent="1" vertex="1">
                    <mxGeometry x="624" y="360" width="64" height="64" as="geometry"/>
                </mxCell>
                <mxCell id="pgW4turYCSJJqPB_iv1n-26" style="edgeStyle=orthogonalEdgeStyle;rounded=0;orthogonalLoop=1;jettySize=auto;html=1;exitX=1;exitY=0.5;exitDx=0;exitDy=0;entryX=0;entryY=0.75;entryDx=0;entryDy=0;startArrow=classicThin;startFill=1;endArrow=classicThin;endFill=1;strokeWidth=2;fontFamily=Lato;fontSize=12;fontColor=none;strokeColor=#808080;" parent="1" source="pgW4turYCSJJqPB_iv1n-11" target="pgW4turYCSJJqPB_iv1n-24" edge="1">
                    <mxGeometry relative="1" as="geometry"/>
                </mxCell>
                <mxCell id="pgW4turYCSJJqPB_iv1n-11" value="L1d" style="rounded=0;whiteSpace=wrap;html=1;labelBackgroundColor=none;fontFamily=Lato;fontSize=16;fontColor=#000000;shadow=1;" parent="1" vertex="1">
                    <mxGeometry x="732" y="440" width="64" height="64" as="geometry"/>
                </mxCell>
                <mxCell id="pgW4turYCSJJqPB_iv1n-32" style="edgeStyle=orthogonalEdgeStyle;rounded=0;orthogonalLoop=1;jettySize=auto;html=1;exitX=1;exitY=0.5;exitDx=0;exitDy=0;entryX=0;entryY=0.75;entryDx=0;entryDy=0;startArrow=classicThin;startFill=1;endArrow=classicThin;endFill=1;strokeWidth=2;fontFamily=Lato;fontSize=16;fontColor=#000000;strokeColor=#0066CC;" parent="1" source="14" target="pgW4turYCSJJqPB_iv1n-31" edge="1">
                    <mxGeometry relative="1" as="geometry"/>
                </mxCell>
                <mxCell id="pgW4turYCSJJqPB_iv1n-12" style="edgeStyle=orthogonalEdgeStyle;rounded=0;orthogonalLoop=1;jettySize=auto;html=1;exitX=1;exitY=0.25;exitDx=0;exitDy=0;entryX=0;entryY=0.5;entryDx=0;entryDy=0;startArrow=classicThin;startFill=1;endArrow=classicThin;endFill=1;fontFamily=Lato;fontSize=12;fontColor=#000000;strokeColor=#FF8000;strokeWidth=2;" parent="1" source="pgW4turYCSJJqPB_iv1n-2" target="pgW4turYCSJJqPB_iv1n-10" edge="1">
                    <mxGeometry relative="1" as="geometry">
                        <Array as="points">
                            <mxPoint x="560" y="372"/>
                            <mxPoint x="560" y="392"/>
                        </Array>
                    </mxGeometry>
                </mxCell>
                <mxCell id="pgW4turYCSJJqPB_iv1n-13" style="edgeStyle=orthogonalEdgeStyle;rounded=0;orthogonalLoop=1;jettySize=auto;html=1;exitX=1;exitY=0.5;exitDx=0;exitDy=0;entryX=0;entryY=0.5;entryDx=0;entryDy=0;startArrow=classicThin;startFill=1;endArrow=classicThin;endFill=1;fontFamily=Lato;fontSize=12;fontColor=#000000;strokeColor=#009900;strokeWidth=2;" parent="1" source="pgW4turYCSJJqPB_iv1n-2" target="8" edge="1">
                    <mxGeometry relative="1" as="geometry">
                        <Array as="points">
                            <mxPoint x="516" y="392"/>
                            <mxPoint x="516" y="436"/>
                        </Array>
                    </mxGeometry>
                </mxCell>
                <mxCell id="pgW4turYCSJJqPB_iv1n-15" style="edgeStyle=orthogonalEdgeStyle;rounded=0;orthogonalLoop=1;jettySize=auto;html=1;exitX=1;exitY=0.75;exitDx=0;exitDy=0;entryX=0;entryY=0.5;entryDx=0;entryDy=0;startArrow=classicThin;startFill=1;endArrow=classicThin;endFill=1;fontFamily=Lato;fontSize=12;fontColor=#000000;strokeColor=#009900;strokeWidth=2;" parent="1" source="pgW4turYCSJJqPB_iv1n-2" target="14" edge="1">
                    <mxGeometry relative="1" as="geometry">
                        <Array as="points">
                            <mxPoint x="504" y="412"/>
                            <mxPoint x="504" y="544"/>
                            <mxPoint x="664" y="544"/>
                        </Array>
                    </mxGeometry>
                </mxCell>
                <mxCell id="pgW4turYCSJJqPB_iv1n-35" value="uncached" style="edgeLabel;html=1;align=center;verticalAlign=middle;resizable=0;points=[];fontSize=12;fontFamily=Lato;fontColor=#009900;labelBackgroundColor=none;" parent="pgW4turYCSJJqPB_iv1n-15" vertex="1" connectable="0">
                    <mxGeometry x="0.5866" relative="1" as="geometry">
                        <mxPoint x="-94" y="-8" as="offset"/>
                    </mxGeometry>
                </mxCell>
                <mxCell id="pgW4turYCSJJqPB_iv1n-4" style="edgeStyle=orthogonalEdgeStyle;rounded=0;orthogonalLoop=1;jettySize=auto;html=1;exitX=1;exitY=0.25;exitDx=0;exitDy=0;entryX=0.005;entryY=0.402;entryDx=0;entryDy=0;entryPerimeter=0;fontFamily=Lato;fontSize=16;endArrow=classicThin;endFill=1;startArrow=classicThin;startFill=1;strokeColor=#FF8000;strokeWidth=2;" parent="1" source="pgW4turYCSJJqPB_iv1n-1" target="pgW4turYCSJJqPB_iv1n-2" edge="1">
                    <mxGeometry relative="1" as="geometry">
                        <Array as="points">
                            <mxPoint x="344" y="384"/>
                        </Array>
                    </mxGeometry>
                </mxCell>
                <mxCell id="pgW4turYCSJJqPB_iv1n-8" value="imem" style="edgeLabel;html=1;align=center;verticalAlign=middle;resizable=0;points=[];fontSize=12;fontFamily=Lato;labelBackgroundColor=none;fontColor=#FF8000;" parent="pgW4turYCSJJqPB_iv1n-4" vertex="1" connectable="0">
                    <mxGeometry x="0.3915" relative="1" as="geometry">
                        <mxPoint y="-8.06" as="offset"/>
                    </mxGeometry>
                </mxCell>
                <mxCell id="pgW4turYCSJJqPB_iv1n-5" style="edgeStyle=orthogonalEdgeStyle;rounded=0;orthogonalLoop=1;jettySize=auto;html=1;exitX=1;exitY=0.5;exitDx=0;exitDy=0;entryX=-0.001;entryY=0.8;entryDx=0;entryDy=0;endArrow=classicThin;endFill=1;fontFamily=Lato;fontSize=16;entryPerimeter=0;startArrow=classicThin;startFill=1;strokeColor=#009900;strokeWidth=2;" parent="1" source="pgW4turYCSJJqPB_iv1n-1" target="pgW4turYCSJJqPB_iv1n-2" edge="1">
                    <mxGeometry relative="1" as="geometry"/>
                </mxCell>
                <mxCell id="pgW4turYCSJJqPB_iv1n-9" value="dmem" style="edgeLabel;html=1;align=center;verticalAlign=middle;resizable=0;points=[];fontSize=12;fontFamily=Lato;labelBackgroundColor=none;fontColor=#009900;" parent="pgW4turYCSJJqPB_iv1n-5" vertex="1" connectable="0">
                    <mxGeometry x="0.4046" y="1" relative="1" as="geometry">
                        <mxPoint y="-7" as="offset"/>
                    </mxGeometry>
                </mxCell>
                <mxCell id="pgW4turYCSJJqPB_iv1n-24" value="L2&lt;br&gt;&lt;font style=&quot;font-size: 14px&quot; color=&quot;#808080&quot;&gt;16-way&lt;br&gt;全关联&lt;br&gt;64KB&lt;/font&gt;" style="rounded=0;whiteSpace=wrap;html=1;labelBackgroundColor=none;fontFamily=Lato;fontSize=16;shadow=1;" parent="1" vertex="1">
                    <mxGeometry x="840" y="352" width="84" height="160" as="geometry"/>
                </mxCell>
                <mxCell id="pgW4turYCSJJqPB_iv1n-27" value="Cache 总线" style="text;html=1;align=center;verticalAlign=middle;resizable=0;points=[];autosize=1;fontSize=14;fontFamily=Lato;labelBackgroundColor=none;fontColor=#808080;" parent="1" vertex="1">
                    <mxGeometry x="722" y="339" width="84" height="24" as="geometry"/>
                </mxCell>
                <mxCell id="pgW4turYCSJJqPB_iv1n-33" style="edgeStyle=orthogonalEdgeStyle;rounded=0;orthogonalLoop=1;jettySize=auto;html=1;exitX=1;exitY=0.5;exitDx=0;exitDy=0;entryX=0;entryY=0.25;entryDx=0;entryDy=0;startArrow=classicThin;startFill=1;endArrow=classicThin;endFill=1;strokeColor=#0066CC;strokeWidth=2;fontFamily=Lato;fontSize=16;fontColor=#000000;" parent="1" source="pgW4turYCSJJqPB_iv1n-47" target="pgW4turYCSJJqPB_iv1n-31" edge="1">
                    <mxGeometry relative="1" as="geometry">
                        <mxPoint x="996.0000000000002" y="431.9999999999999" as="sourcePoint"/>
                    </mxGeometry>
                </mxCell>
                <mxCell id="pgW4turYCSJJqPB_iv1n-40" style="edgeStyle=orthogonalEdgeStyle;rounded=0;orthogonalLoop=1;jettySize=auto;html=1;exitX=1;exitY=0.5;exitDx=0;exitDy=0;startArrow=classicThin;startFill=1;endArrow=classicThin;endFill=1;strokeWidth=2;fontFamily=Lato;fontSize=12;fontColor=#000000;strokeColor=#0066CC;" parent="1" source="pgW4turYCSJJqPB_iv1n-31" edge="1">
                    <mxGeometry relative="1" as="geometry">
                        <mxPoint x="1268" y="480" as="targetPoint"/>
                    </mxGeometry>
                </mxCell>
                <mxCell id="pgW4turYCSJJqPB_iv1n-31" value="AXI Crossbar&lt;br&gt;&lt;font style=&quot;font-size: 14px&quot; color=&quot;#808080&quot;&gt;(+L2: 2×1)&lt;br&gt;(-L2: 3×1)&lt;/font&gt;" style="rounded=1;whiteSpace=wrap;html=1;labelBackgroundColor=none;strokeColor=#000000;fontFamily=Lato;fontSize=16;shadow=1;" parent="1" vertex="1">
                    <mxGeometry x="1104" y="352" width="120" height="256" as="geometry"/>
                </mxCell>
                <mxCell id="pgW4turYCSJJqPB_iv1n-34" value="AXI 总线" style="text;html=1;align=center;verticalAlign=middle;resizable=0;points=[];autosize=1;fontSize=14;fontFamily=Lato;fontColor=#0066CC;" parent="1" vertex="1">
                    <mxGeometry x="1008" y="520" width="68" height="24" as="geometry"/>
                </mxCell>
                <mxCell id="pgW4turYCSJJqPB_iv1n-38" value="虚地址" style="text;html=1;align=center;verticalAlign=middle;resizable=0;points=[];autosize=1;fontSize=14;fontFamily=Lato;fontColor=#808080;" parent="1" vertex="1">
                    <mxGeometry x="384" y="588" width="56" height="24" as="geometry"/>
                </mxCell>
                <mxCell id="pgW4turYCSJJqPB_iv1n-39" value="物理地址" style="text;html=1;align=center;verticalAlign=middle;resizable=0;points=[];autosize=1;fontSize=14;fontFamily=Lato;fontColor=#808080;" parent="1" vertex="1">
                    <mxGeometry x="440" y="588" width="72" height="24" as="geometry"/>
                </mxCell>
                <mxCell id="pgW4turYCSJJqPB_iv1n-41" value="(SRAM*)" style="text;html=1;align=center;verticalAlign=middle;resizable=0;points=[];autosize=1;fontSize=12;fontFamily=Lato;fontColor=#009900;" parent="1" vertex="1">
                    <mxGeometry x="550" y="562" width="60" height="20" as="geometry"/>
                </mxCell>
                <mxCell id="pgW4turYCSJJqPB_iv1n-44" value="TLB" style="rounded=0;whiteSpace=wrap;html=1;shadow=0;labelBackgroundColor=none;strokeColor=#666666;fontFamily=Lato;fontSize=14;fontColor=#333333;fillColor=#f5f5f5;dashed=1;" parent="1" vertex="1">
                    <mxGeometry x="442" y="384" width="32" height="44" as="geometry"/>
                </mxCell>
                <mxCell id="pgW4turYCSJJqPB_iv1n-45" value="MMU" style="text;html=1;align=center;verticalAlign=middle;resizable=0;points=[];autosize=1;fontSize=14;fontFamily=Lato;" parent="1" vertex="1">
                    <mxGeometry x="400" y="352" width="52" height="24" as="geometry"/>
                </mxCell>
                <mxCell id="pgW4turYCSJJqPB_iv1n-48" style="edgeStyle=orthogonalEdgeStyle;rounded=0;orthogonalLoop=1;jettySize=auto;html=1;exitX=0;exitY=0.5;exitDx=0;exitDy=0;entryX=1;entryY=0.5;entryDx=0;entryDy=0;startArrow=classicThin;startFill=1;endArrow=classicThin;endFill=1;strokeColor=#808080;strokeWidth=2;fontFamily=Lato;fontSize=14;fontColor=#808080;" parent="1" source="pgW4turYCSJJqPB_iv1n-47" target="pgW4turYCSJJqPB_iv1n-24" edge="1">
                    <mxGeometry relative="1" as="geometry">
                        <Array as="points">
                            <mxPoint x="944" y="416"/>
                            <mxPoint x="944" y="432"/>
                        </Array>
                    </mxGeometry>
                </mxCell>
                <mxCell id="pgW4turYCSJJqPB_iv1n-47" value="&lt;font color=&quot;#808080&quot;&gt;$Bus&lt;/font&gt; → &lt;font color=&quot;#0066cc&quot;&gt;AXI&lt;/font&gt;&lt;br&gt;&lt;font style=&quot;font-size: 14px&quot; color=&quot;#808080&quot;&gt;(2×2/1×1)&lt;/font&gt;" style="shape=parallelogram;perimeter=parallelogramPerimeter;whiteSpace=wrap;html=1;labelBackgroundColor=none;fontFamily=Lato;fontSize=16;fontColor=#000000;size=0.11428571428571428;shadow=1;" parent="1" vertex="1">
                    <mxGeometry x="956" y="388" width="116" height="56" as="geometry"/>
                </mxCell>
                <mxCell id="pgW4turYCSJJqPB_iv1n-49" value="($Bus)" style="text;html=1;align=center;verticalAlign=middle;resizable=0;points=[];autosize=1;fontSize=12;fontFamily=Lato;fontColor=#808080;" parent="1" vertex="1">
                    <mxGeometry x="740" y="329" width="48" height="20" as="geometry"/>
                </mxCell>
                <mxCell id="2" value="取指总线" style="text;html=1;align=center;verticalAlign=middle;resizable=0;points=[];autosize=1;fontSize=14;fontColor=#FF8000;" parent="1" vertex="1">
                    <mxGeometry x="328" y="346" width="72" height="24" as="geometry"/>
                </mxCell>
                <mxCell id="3" value="(IBus)" style="text;html=1;align=center;verticalAlign=middle;resizable=0;points=[];autosize=1;fontSize=12;fontColor=#FF8000;" parent="1" vertex="1">
                    <mxGeometry x="340" y="336" width="48" height="20" as="geometry"/>
                </mxCell>
                <mxCell id="6" value="数据总线" style="text;html=1;align=center;verticalAlign=middle;resizable=0;points=[];autosize=1;fontSize=14;fontColor=#CC0000;" parent="1" vertex="1">
                    <mxGeometry x="636" y="448" width="72" height="24" as="geometry"/>
                </mxCell>
                <mxCell id="7" value="(DBus)" style="text;html=1;align=center;verticalAlign=middle;resizable=0;points=[];autosize=1;fontSize=12;fontColor=#CC0000;" parent="1" vertex="1">
                    <mxGeometry x="646" y="436" width="52" height="20" as="geometry"/>
                </mxCell>
                <mxCell id="9" style="edgeStyle=orthogonalEdgeStyle;rounded=0;orthogonalLoop=1;jettySize=auto;html=1;exitX=1;exitY=0.5;exitDx=0;exitDy=0;entryX=0;entryY=0.5;entryDx=0;entryDy=0;strokeColor=#CC0000;fontSize=12;fontColor=#000000;strokeWidth=2;startArrow=classicThin;startFill=1;endArrow=classicThin;endFill=1;" parent="1" source="8" target="pgW4turYCSJJqPB_iv1n-11" edge="1">
                    <mxGeometry relative="1" as="geometry">
                        <Array as="points">
                            <mxPoint x="628" y="436"/>
                            <mxPoint x="628" y="472"/>
                        </Array>
                    </mxGeometry>
                </mxCell>
                <mxCell id="8" value="S-Pipeline" style="rounded=0;whiteSpace=wrap;html=1;shadow=1;fontSize=12;fontColor=#000000;rotation=0;" parent="1" vertex="1">
                    <mxGeometry x="536" y="420" width="64" height="32" as="geometry"/>
                </mxCell>
                <mxCell id="13" style="edgeStyle=orthogonalEdgeStyle;rounded=0;orthogonalLoop=1;jettySize=auto;html=1;exitX=1;exitY=0.5;exitDx=0;exitDy=0;entryX=0;entryY=0.25;entryDx=0;entryDy=0;startArrow=classicThin;startFill=1;endArrow=classicThin;endFill=1;strokeColor=#808080;strokeWidth=2;fontSize=12;fontColor=#000000;" parent="1" source="10" target="pgW4turYCSJJqPB_iv1n-24" edge="1">
                    <mxGeometry relative="1" as="geometry">
                        <Array as="points">
                            <mxPoint x="800" y="392"/>
                            <mxPoint x="800" y="392"/>
                        </Array>
                    </mxGeometry>
                </mxCell>
                <mxCell id="10" value="Prefetch" style="rounded=0;whiteSpace=wrap;html=1;shadow=1;fontSize=12;fontColor=#000000;rotation=0;" parent="1" vertex="1">
                    <mxGeometry x="732" y="376" width="64" height="32" as="geometry"/>
                </mxCell>
                <mxCell id="14" value="Load/Store FIFO" style="rounded=0;whiteSpace=wrap;html=1;shadow=1;fontSize=14;fontColor=#000000;rotation=0;" parent="1" vertex="1">
                    <mxGeometry x="692" y="528" width="144" height="32" as="geometry"/>
                </mxCell>
            </root>
        </mxGraphModel>
    </diagram>
</mxfile>